<svg width="42" height="30" viewBox="0 0 42 30" fill="none" xmlns="http://www.w3.org/2000/svg">
<path d="M21 30C28.1787 30 34.2025 26.4333 35.8504 19.6839C35.8565 19.6839 35.8626 19.684 35.8687 19.684L35.8815 19.684C39.2606 19.684 42 16.4326 42 13.0131C42 9.59347 39.2606 6.34212 35.8815 6.34212C35.1872 6.34212 34.2355 6.26746 33.6134 6.48308C30.8962 2.18119 26.4195 0 21 0C15.5805 0 11.1038 2.18119 8.38659 6.48308C7.76452 6.26746 6.81281 6.34212 6.11852 6.34212C2.73935 6.34212 0 9.59347 0 13.0131C0 16.4326 2.73935 19.2047 6.11852 19.2047C6.12889 19.2047 6.13926 19.2047 6.14962 19.2047C7.79754 25.9541 13.8213 30 21 30Z" fill="#FBFDFF"/>
</svg>
