<svg width="76" height="12" viewBox="0 0 76 12" fill="none" xmlns="http://www.w3.org/2000/svg">
<path d="M0.250977 0.599609H6.85098V8.99961H5.72298V1.58361H1.37898V8.99961H0.250977V0.599609Z" fill="url(#paint0_linear_4519_2909)"/>
<path d="M11.651 9.11961C11.243 9.11961 10.855 9.05561 10.487 8.92761C10.119 8.79161 9.79498 8.59161 9.51498 8.32761C9.23498 8.05561 9.01098 7.71561 8.84298 7.30761C8.67498 6.89961 8.59098 6.42361 8.59098 5.87961V5.63961C8.59098 5.12761 8.67498 4.67561 8.84298 4.28361C9.01098 3.89161 9.23498 3.56761 9.51498 3.31161C9.79498 3.04761 10.119 2.85161 10.487 2.72361C10.855 2.58761 11.243 2.51961 11.651 2.51961C12.059 2.51961 12.447 2.58761 12.815 2.72361C13.183 2.85161 13.507 3.04761 13.787 3.31161C14.067 3.56761 14.291 3.89161 14.459 4.28361C14.627 4.67561 14.711 5.12761 14.711 5.63961V5.87961C14.711 6.42361 14.627 6.89961 14.459 7.30761C14.291 7.71561 14.067 8.05561 13.787 8.32761C13.507 8.59161 13.183 8.79161 12.815 8.92761C12.447 9.05561 12.059 9.11961 11.651 9.11961ZM11.651 8.15961C11.891 8.15961 12.131 8.11961 12.371 8.03961C12.611 7.95161 12.823 7.81961 13.007 7.64361C13.191 7.45961 13.339 7.22361 13.451 6.93561C13.571 6.64761 13.631 6.29561 13.631 5.87961V5.63961C13.631 5.25561 13.571 4.92761 13.451 4.65561C13.339 4.38361 13.191 4.15961 13.007 3.98361C12.823 3.80761 12.611 3.67961 12.371 3.59961C12.131 3.51961 11.891 3.47961 11.651 3.47961C11.411 3.47961 11.171 3.51961 10.931 3.59961C10.691 3.67961 10.479 3.80761 10.295 3.98361C10.111 4.15961 9.95898 4.38361 9.83898 4.65561C9.72698 4.92761 9.67098 5.25561 9.67098 5.63961V5.87961C9.67098 6.29561 9.72698 6.64761 9.83898 6.93561C9.95898 7.22361 10.111 7.45961 10.295 7.64361C10.479 7.81961 10.691 7.95161 10.931 8.03961C11.171 8.11961 11.411 8.15961 11.651 8.15961Z" fill="url(#paint1_linear_4519_2909)"/>
<path d="M15.3691 8.06361H16.1491C16.2371 7.94361 16.3171 7.75961 16.3891 7.51161C16.4611 7.26361 16.5251 6.97161 16.5811 6.63561C16.6371 6.29961 16.6771 5.93561 16.7011 5.54361C16.7331 5.14361 16.7491 4.73561 16.7491 4.31961V2.63961H21.1891V8.06361H22.0891V10.4996H21.0811V8.99961H16.3771V10.4996H15.3691V8.06361ZM20.1331 8.06361V3.57561H17.7811V4.55961C17.7811 4.89561 17.7691 5.23161 17.7451 5.56761C17.7211 5.89561 17.6851 6.21161 17.6371 6.51561C17.5891 6.81161 17.5291 7.09561 17.4571 7.36761C17.3931 7.63161 17.3171 7.86361 17.2291 8.06361H20.1331Z" fill="url(#paint2_linear_4519_2909)"/>
<path d="M24.6895 3.57561H22.5175V2.63961H27.9175V3.57561H25.7455V8.99961H24.6895V3.57561Z" fill="url(#paint3_linear_4519_2909)"/>
<path d="M29.1203 2.63961H31.8804C32.6644 2.63961 33.2404 2.80361 33.6084 3.13161C33.9764 3.45161 34.1604 3.86761 34.1604 4.37961C34.1604 4.51561 34.1364 4.65561 34.0884 4.79961C34.0404 4.93561 33.9724 5.06361 33.8843 5.18361C33.8043 5.30361 33.7043 5.40761 33.5844 5.49561C33.4724 5.58361 33.3444 5.65161 33.2004 5.69961C33.5924 5.79561 33.8884 5.97961 34.0884 6.25161C34.2964 6.51561 34.4004 6.82761 34.4004 7.18761C34.4004 7.73961 34.2164 8.17961 33.8484 8.50761C33.4804 8.83561 32.9044 8.99961 32.1203 8.99961H29.1203V2.63961ZM32.1203 8.06361C32.5684 8.06361 32.8844 7.98361 33.0684 7.82361C33.2523 7.66361 33.3444 7.43561 33.3444 7.13961C33.3444 6.83561 33.2523 6.60361 33.0684 6.44361C32.8844 6.27561 32.5684 6.19161 32.1203 6.19161H30.1763V8.06361H32.1203ZM31.8804 5.32761C32.3364 5.32761 32.6524 5.24761 32.8284 5.08761C33.0124 4.92761 33.1044 4.70761 33.1044 4.42761C33.1044 4.16361 33.0124 3.95561 32.8284 3.80361C32.6524 3.65161 32.3364 3.57561 31.8804 3.57561H30.1763V5.32761H31.8804Z" fill="url(#paint4_linear_4519_2909)"/>
<path d="M38.5455 9.11961C38.1375 9.11961 37.7495 9.05561 37.3815 8.92761C37.0135 8.79961 36.6895 8.60361 36.4095 8.33961C36.1295 8.06761 35.9055 7.72761 35.7375 7.31961C35.5695 6.91161 35.4855 6.43161 35.4855 5.87961V5.63961C35.4855 5.11161 35.5655 4.65561 35.7255 4.27161C35.8855 3.87961 36.0975 3.55561 36.3615 3.29961C36.6335 3.03561 36.9455 2.83961 37.2975 2.71161C37.6575 2.58361 38.0335 2.51961 38.4255 2.51961C39.3615 2.51961 40.0855 2.77561 40.5975 3.28761C41.1095 3.79961 41.3655 4.52361 41.3655 5.45961V6.13161H36.5415C36.5415 6.50761 36.6015 6.82361 36.7215 7.07961C36.8415 7.33561 36.9975 7.54361 37.1895 7.70361C37.3815 7.86361 37.5935 7.97961 37.8255 8.05161C38.0655 8.12361 38.3055 8.15961 38.5455 8.15961C39.0255 8.15961 39.3935 8.07961 39.6495 7.91961C39.9135 7.75961 40.1015 7.53961 40.2135 7.25961H41.2455C41.1815 7.56361 41.0655 7.83161 40.8975 8.06361C40.7375 8.29561 40.5375 8.49161 40.2975 8.65161C40.0655 8.80361 39.7975 8.91961 39.4935 8.99961C39.1975 9.07961 38.8815 9.11961 38.5455 9.11961ZM38.4855 3.47961C38.2375 3.47961 37.9975 3.51561 37.7655 3.58761C37.5335 3.65161 37.3255 3.75961 37.1415 3.91161C36.9655 4.05561 36.8215 4.23961 36.7095 4.46361C36.5975 4.68761 36.5415 4.95561 36.5415 5.26761H40.3695C40.3615 4.93961 40.3055 4.66361 40.2015 4.43961C40.1055 4.20761 39.9735 4.02361 39.8055 3.88761C39.6375 3.74361 39.4375 3.63961 39.2055 3.57561C38.9815 3.51161 38.7415 3.47961 38.4855 3.47961Z" fill="url(#paint5_linear_4519_2909)"/>
<path d="M42.8664 2.63961H43.8504V3.83961C44.0664 3.41561 44.3664 3.09161 44.7504 2.86761C45.1424 2.63561 45.5944 2.51961 46.1064 2.51961C46.9064 2.51961 47.5464 2.78361 48.0264 3.31161C48.5064 3.83161 48.7464 4.60761 48.7464 5.63961V5.87961C48.7464 6.42361 48.6824 6.89961 48.5544 7.30761C48.4264 7.70761 48.2464 8.04361 48.0144 8.31561C47.7824 8.57961 47.5024 8.77961 47.1744 8.91561C46.8544 9.05161 46.4984 9.11961 46.1064 9.11961C45.5624 9.11961 45.1064 8.99961 44.7384 8.75961C44.3784 8.51961 44.1064 8.21961 43.9224 7.85961V11.3996H42.8664V2.63961ZM45.8664 8.18361C46.1224 8.18361 46.3624 8.13561 46.5864 8.03961C46.8104 7.93561 47.0024 7.78761 47.1624 7.59561C47.3304 7.40361 47.4584 7.16361 47.5464 6.87561C47.6424 6.58761 47.6904 6.25561 47.6904 5.87961V5.63961C47.6904 5.29561 47.6424 4.98761 47.5464 4.71561C47.4584 4.44361 47.3304 4.21561 47.1624 4.03161C47.0024 3.83961 46.8104 3.69561 46.5864 3.59961C46.3624 3.50361 46.1224 3.45561 45.8664 3.45561C45.5784 3.45561 45.3144 3.50361 45.0744 3.59961C44.8344 3.68761 44.6304 3.81561 44.4624 3.98361C44.2944 4.14361 44.1624 4.33561 44.0664 4.55961C43.9704 4.78361 43.9224 5.02361 43.9224 5.27961V6.23961C43.9224 6.52761 43.9704 6.79161 44.0664 7.03161C44.1624 7.27161 44.2944 7.47561 44.4624 7.64361C44.6304 7.81161 44.8344 7.94361 45.0744 8.03961C45.3144 8.13561 45.5784 8.18361 45.8664 8.18361Z" fill="url(#paint6_linear_4519_2909)"/>
<path d="M49.4121 8.06361H50.1921C50.2801 7.94361 50.3601 7.75961 50.4321 7.51161C50.5041 7.26361 50.5681 6.97161 50.6241 6.63561C50.6801 6.29961 50.7201 5.93561 50.7441 5.54361C50.7761 5.14361 50.7921 4.73561 50.7921 4.31961V2.63961H55.2321V8.06361H56.1321V10.4996H55.1241V8.99961H50.4201V10.4996H49.4121V8.06361ZM54.1761 8.06361V3.57561H51.8241V4.55961C51.8241 4.89561 51.8121 5.23161 51.7881 5.56761C51.7641 5.89561 51.7281 6.21161 51.6801 6.51561C51.6321 6.81161 51.5721 7.09561 51.5001 7.36761C51.4361 7.63161 51.3601 7.86361 51.2721 8.06361H54.1761Z" fill="url(#paint7_linear_4519_2909)"/>
<path d="M57.3977 2.63961H58.4537V7.43961L61.7417 2.63961H62.7977V8.99961H61.7417V4.19961L58.4537 8.99961H57.3977V2.63961Z" fill="url(#paint8_linear_4519_2909)"/>
<path d="M66.1739 3.57561H64.0019V2.63961H69.4019V3.57561H67.2299V8.99961H66.1739V3.57561Z" fill="url(#paint9_linear_4519_2909)"/>
<path d="M70.6047 2.63961H71.6607V5.03961H73.1847C73.9847 5.03961 74.5727 5.21561 74.9487 5.56761C75.3327 5.91961 75.5247 6.40761 75.5247 7.03161C75.5247 7.63961 75.3327 8.11961 74.9487 8.47161C74.5727 8.82361 73.9847 8.99961 73.1847 8.99961H70.6047V2.63961ZM73.1247 8.06361C73.6207 8.06361 73.9687 7.97561 74.1687 7.79961C74.3687 7.62361 74.4687 7.36361 74.4687 7.01961C74.4687 6.67561 74.3687 6.41561 74.1687 6.23961C73.9687 6.06361 73.6207 5.97561 73.1247 5.97561H71.6607V8.06361H73.1247Z" fill="url(#paint10_linear_4519_2909)"/>
<defs>
<linearGradient id="paint0_linear_4519_2909" x1="0.999999" y1="6" x2="76" y2="4.5" gradientUnits="userSpaceOnUse">
<stop stop-color="#2E3192"/>
<stop offset="0.506664" stop-color="#2E3192"/>
<stop offset="0.506992" stop-color="white"/>
<stop offset="1" stop-color="#FBFDFF"/>
</linearGradient>
<linearGradient id="paint1_linear_4519_2909" x1="0.999999" y1="6" x2="76" y2="4.5" gradientUnits="userSpaceOnUse">
<stop stop-color="#2E3192"/>
<stop offset="0.506664" stop-color="#2E3192"/>
<stop offset="0.506992" stop-color="white"/>
<stop offset="1" stop-color="#FBFDFF"/>
</linearGradient>
<linearGradient id="paint2_linear_4519_2909" x1="0.999999" y1="6" x2="76" y2="4.5" gradientUnits="userSpaceOnUse">
<stop stop-color="#2E3192"/>
<stop offset="0.506664" stop-color="#2E3192"/>
<stop offset="0.506992" stop-color="white"/>
<stop offset="1" stop-color="#FBFDFF"/>
</linearGradient>
<linearGradient id="paint3_linear_4519_2909" x1="0.999999" y1="6" x2="76" y2="4.5" gradientUnits="userSpaceOnUse">
<stop stop-color="#2E3192"/>
<stop offset="0.506664" stop-color="#2E3192"/>
<stop offset="0.506992" stop-color="white"/>
<stop offset="1" stop-color="#FBFDFF"/>
</linearGradient>
<linearGradient id="paint4_linear_4519_2909" x1="0.999999" y1="6" x2="76" y2="4.5" gradientUnits="userSpaceOnUse">
<stop stop-color="#2E3192"/>
<stop offset="0.506664" stop-color="#2E3192"/>
<stop offset="0.506992" stop-color="white"/>
<stop offset="1" stop-color="#FBFDFF"/>
</linearGradient>
<linearGradient id="paint5_linear_4519_2909" x1="0.999999" y1="6" x2="76" y2="4.5" gradientUnits="userSpaceOnUse">
<stop stop-color="#2E3192"/>
<stop offset="0.506664" stop-color="#2E3192"/>
<stop offset="0.506992" stop-color="white"/>
<stop offset="1" stop-color="#FBFDFF"/>
</linearGradient>
<linearGradient id="paint6_linear_4519_2909" x1="0.999999" y1="6" x2="76" y2="4.5" gradientUnits="userSpaceOnUse">
<stop stop-color="#2E3192"/>
<stop offset="0.506664" stop-color="#2E3192"/>
<stop offset="0.506992" stop-color="white"/>
<stop offset="1" stop-color="#FBFDFF"/>
</linearGradient>
<linearGradient id="paint7_linear_4519_2909" x1="0.999999" y1="6" x2="76" y2="4.5" gradientUnits="userSpaceOnUse">
<stop stop-color="#2E3192"/>
<stop offset="0.506664" stop-color="#2E3192"/>
<stop offset="0.506992" stop-color="white"/>
<stop offset="1" stop-color="#FBFDFF"/>
</linearGradient>
<linearGradient id="paint8_linear_4519_2909" x1="0.999999" y1="6" x2="76" y2="4.5" gradientUnits="userSpaceOnUse">
<stop stop-color="#2E3192"/>
<stop offset="0.506664" stop-color="#2E3192"/>
<stop offset="0.506992" stop-color="white"/>
<stop offset="1" stop-color="#FBFDFF"/>
</linearGradient>
<linearGradient id="paint9_linear_4519_2909" x1="0.999999" y1="6" x2="76" y2="4.5" gradientUnits="userSpaceOnUse">
<stop stop-color="#2E3192"/>
<stop offset="0.506664" stop-color="#2E3192"/>
<stop offset="0.506992" stop-color="white"/>
<stop offset="1" stop-color="#FBFDFF"/>
</linearGradient>
<linearGradient id="paint10_linear_4519_2909" x1="0.999999" y1="6" x2="76" y2="4.5" gradientUnits="userSpaceOnUse">
<stop stop-color="#2E3192"/>
<stop offset="0.506664" stop-color="#2E3192"/>
<stop offset="0.506992" stop-color="white"/>
<stop offset="1" stop-color="#FBFDFF"/>
</linearGradient>
</defs>
</svg>
