<svg width="47" height="36" viewBox="0 0 47 36" fill="none" xmlns="http://www.w3.org/2000/svg">
<g filter="url(#filter0_d_891_8722)">
<path d="M22.5 33C29.8497 33 36.0168 29.1956 37.704 21.9962C37.7102 21.9962 37.7165 21.9962 37.7228 21.9962L37.7358 21.9962C41.1954 21.9962 44 18.5281 44 14.8806C44 11.233 41.1954 7.76493 37.7358 7.76493C37.025 7.76493 36.0506 7.68529 35.4137 7.91528C32.6319 3.3266 28.0485 1 22.5 1C16.9515 1 12.3681 3.3266 9.58627 7.91528C8.94939 7.68529 7.97502 7.76493 7.2642 7.76493C3.80458 7.76493 1 11.233 1 14.8806C1 18.5281 3.80458 21.4851 7.2642 21.4851C7.27482 21.4851 7.28543 21.485 7.29604 21.485C8.98319 28.6844 15.1503 33 22.5 33Z" fill="#2E3192"/>
<path d="M33.5572 17.7273C33.5572 24.5555 28.2859 30.0909 21.7834 30.0909C15.2809 30.0909 10.0096 24.5555 10.0096 17.7273C10.0096 10.899 15.2809 5.36365 21.7834 5.36365C28.2859 5.36365 33.5572 10.899 33.5572 17.7273Z" stroke="white" stroke-width="0.5"/>
<path d="M27.6406 17.1071C27.7231 17.9659 27.6333 18.8333 27.3772 19.6535C27.1211 20.4737 26.7042 21.2285 26.1534 21.8693C25.6027 22.51 24.9302 23.0226 24.1794 23.3739C23.4286 23.7252 22.616 23.9075 21.794 23.9091C20.972 23.9107 20.1588 23.7314 19.4068 23.3829C18.6547 23.0345 17.9805 22.5245 17.4276 21.8858C16.8746 21.2471 16.4552 20.4939 16.1962 19.6747C15.9373 18.8555 15.8446 17.9884 15.9241 17.1292L16.5495 17.1931C16.4785 17.9605 16.5613 18.735 16.7926 19.4668C17.0239 20.1986 17.3986 20.8714 17.8925 21.4419C18.3865 22.0124 18.9887 22.468 19.6605 22.7793C20.3322 23.0905 21.0586 23.2506 21.7929 23.2492C22.5271 23.2478 23.253 23.085 23.9237 22.7712C24.5943 22.4574 25.195 21.9995 25.687 21.4272C26.179 20.8548 26.5513 20.1806 26.7801 19.4479C27.0089 18.7153 27.089 17.9404 27.0154 17.1733L27.6406 17.1071Z" stroke="white" stroke-width="0.5"/>
<path d="M19.4286 14.0182C19.4286 14.701 18.9015 15.2546 18.2512 15.2546C17.601 15.2546 17.0739 14.701 17.0739 14.0182C17.0739 13.3354 17.601 12.7818 18.2512 12.7818C18.9015 12.7818 19.4286 13.3354 19.4286 14.0182Z" stroke="white" stroke-width="0.5"/>
<path d="M26.4929 14.0182C26.4929 14.701 25.9658 15.2546 25.3155 15.2546C24.6653 15.2546 24.1381 14.701 24.1381 14.0182C24.1381 13.3354 24.6653 12.7818 25.3155 12.7818C25.9658 12.7818 26.4929 13.3354 26.4929 14.0182Z" stroke="white" stroke-width="0.5"/>
<path d="M33.1977 20.1856C33.9216 20.2438 34.6484 20.1255 35.3215 19.8399C35.9946 19.5543 36.5957 19.1092 37.0779 18.5393C37.56 17.9694 37.9102 17.2902 38.1011 16.5547C38.2919 15.8192 38.3183 15.0473 38.178 14.2993C38.0378 13.5514 37.7348 12.8476 37.2927 12.2429C36.8507 11.6382 36.2814 11.1491 35.6296 10.8136C34.9777 10.4782 34.2608 10.3055 33.5348 10.3092C32.8089 10.3128 32.0935 10.4926 31.4447 10.8345L32.6409 13.3374C32.9223 13.189 33.2326 13.1111 33.5475 13.1095C33.8624 13.1079 34.1733 13.1828 34.4561 13.3283C34.7388 13.4738 34.9857 13.686 35.1775 13.9482C35.3693 14.2105 35.5007 14.5158 35.5615 14.8402C35.6223 15.1647 35.6109 15.4995 35.5281 15.8185C35.4453 16.1375 35.2934 16.4321 35.0843 16.6793C34.8751 16.9265 34.6144 17.1196 34.3225 17.2434C34.0305 17.3673 33.7152 17.4186 33.4013 17.3934L33.1977 20.1856Z" stroke="white" stroke-width="0.5"/>
<path d="M10.369 20.1856C9.6452 20.2438 8.91835 20.1255 8.24527 19.8399C7.57218 19.5543 6.97108 19.1092 6.48891 18.5393C6.00674 17.9694 5.65655 17.2902 5.46571 16.5547C5.27486 15.8192 5.24852 15.0473 5.38873 14.2993C5.52895 13.5514 5.83194 12.8476 6.27402 12.2429C6.7161 11.6382 7.28532 11.1491 7.93721 10.8136C8.5891 10.4782 9.30601 10.3055 10.032 10.3092C10.7579 10.3128 11.4732 10.4926 12.122 10.8345L10.9259 13.3374C10.6444 13.189 10.3342 13.1111 10.0193 13.1095C9.7044 13.1079 9.39344 13.1828 9.11068 13.3283C8.82792 13.4738 8.58102 13.686 8.38927 13.9482C8.19751 14.2105 8.06609 14.5158 8.00527 14.8402C7.94445 15.1647 7.95588 15.4995 8.03866 15.8185C8.12144 16.1375 8.27334 16.4321 8.48248 16.6793C8.69162 16.9265 8.95235 17.1196 9.2443 17.2434C9.53625 17.3673 9.85152 17.4186 10.1655 17.3934L10.369 20.1856Z" stroke="white" stroke-width="0.5"/>
</g>
<defs>
<filter id="filter0_d_891_8722" x="0" y="0" width="47" height="36" filterUnits="userSpaceOnUse" color-interpolation-filters="sRGB">
<feFlood flood-opacity="0" result="BackgroundImageFix"/>
<feColorMatrix in="SourceAlpha" type="matrix" values="0 0 0 0 0 0 0 0 0 0 0 0 0 0 0 0 0 0 127 0" result="hardAlpha"/>
<feOffset dx="1" dy="1"/>
<feGaussianBlur stdDeviation="1"/>
<feComposite in2="hardAlpha" operator="out"/>
<feColorMatrix type="matrix" values="0 0 0 0 0.180392 0 0 0 0 0.192157 0 0 0 0 0.572549 0 0 0 0.25 0"/>
<feBlend mode="normal" in2="BackgroundImageFix" result="effect1_dropShadow_891_8722"/>
<feBlend mode="normal" in="SourceGraphic" in2="effect1_dropShadow_891_8722" result="shape"/>
</filter>
</defs>
</svg>
