<svg width="17" height="18" viewBox="0 0 17 18" fill="none" xmlns="http://www.w3.org/2000/svg">
<path d="M16.7548 17.7443H0.245182C0.0817208 17.7443 0 17.6618 0 17.4967V2.80737C0 2.64232 0.0817208 2.55975 0.245182 2.55975H16.7548C16.9183 2.55975 17 2.64232 17 2.80737V17.4967C16.9183 17.6618 16.8365 17.7443 16.7548 17.7443ZM0.408654 17.2491H16.5096V2.97238H0.408654V17.2491Z" fill="#2E3192"/>
<path d="M12.668 4.29285C12.5046 4.29285 12.4229 4.21029 12.4229 4.04524V0.991876C12.4229 0.826827 12.5046 0.744263 12.668 0.744263C12.8315 0.744263 12.9132 0.826827 12.9132 0.991876V4.04524C12.9132 4.21029 12.7498 4.29285 12.668 4.29285Z" fill="#2E3192"/>
<path d="M4.16855 4.29285C4.00509 4.29285 3.92334 4.21029 3.92334 4.04524V0.991876C3.92334 0.826827 4.00509 0.744263 4.16855 0.744263C4.33201 0.744263 4.41373 0.826827 4.41373 0.991876V4.04524C4.41373 4.21029 4.25028 4.29285 4.16855 4.29285Z" fill="#2E3192"/>
<path d="M4.33171 13.3707V13.0405C4.41344 12.958 4.57691 12.793 4.8221 12.6279C5.06729 12.4629 5.14903 12.2978 5.31249 12.2153C5.39422 12.1328 5.55768 11.9677 5.72114 11.8027C5.88461 11.6376 6.04807 11.4726 6.1298 11.3901C6.21153 11.3075 6.37499 11.1425 6.45672 10.9774C6.53845 10.8124 6.70192 10.7299 6.70192 10.5648C6.86539 10.2347 6.94711 9.98714 6.94711 9.73957C6.94711 9.492 6.86539 9.2444 6.70192 8.99683C6.53846 8.83178 6.29327 8.66671 5.88462 8.66671C5.55769 8.66671 5.23077 8.74926 5.06731 8.99683C4.90385 9.2444 4.74036 9.49198 4.74036 9.82207H4.25C4.25 9.32693 4.41344 8.91428 4.74036 8.66671C4.98556 8.41914 5.39423 8.25409 5.80288 8.25409C6.29327 8.25409 6.62018 8.41914 6.86537 8.66671C7.11056 8.91428 7.27403 9.24442 7.27403 9.73957C7.27403 9.90462 7.27404 10.1521 7.11058 10.3997C7.02885 10.6473 6.9471 10.8124 6.86537 10.9774C6.78364 11.1425 6.62017 11.3075 6.37498 11.5551C6.21152 11.8026 6.04808 11.9677 5.88462 12.0502C5.80289 12.1327 5.55768 12.2978 5.31249 12.5454C5.0673 12.7105 4.90384 12.8755 4.90384 12.958H7.35576V13.3707H4.33171Z" fill="#2E3192"/>
<path d="M9.39895 8.58421C9.72588 8.33663 10.0528 8.25409 10.5432 8.25409C10.9518 8.25409 11.3605 8.33663 11.6057 8.58421C11.8509 8.83178 12.0143 9.16186 12.0143 9.49196C12.0143 9.73953 11.9326 9.98712 11.7691 10.2347C11.6057 10.4823 11.4422 10.5648 11.1153 10.6473C11.4422 10.7298 11.6057 10.8949 11.7691 11.1424C11.9326 11.39 12.0143 11.7201 12.0143 12.0502C12.0143 12.4628 11.8509 12.7104 11.6057 13.0405C11.3605 13.2881 10.9518 13.4532 10.4614 13.4532C9.97106 13.4532 9.56241 13.3706 9.31722 13.123C8.99029 12.8755 8.82683 12.5454 8.82683 12.1328H9.23548C9.23548 12.3804 9.39894 12.6279 9.64414 12.7929C9.88933 12.958 10.1345 13.0405 10.4614 13.0405C10.7884 13.0405 11.1153 12.958 11.2788 12.7929C11.4422 12.6279 11.524 12.3803 11.524 12.0502C11.524 11.6376 11.3605 11.39 11.1153 11.2249C10.8701 11.0599 10.4615 10.9774 9.97108 10.9774H9.80761V10.5648H9.97108C10.9518 10.5648 11.3605 10.2347 11.3605 9.65706C11.3605 9.40949 11.2788 9.16188 11.1153 8.99683C10.9518 8.83178 10.7067 8.74922 10.3797 8.74922C10.0528 8.74922 9.80762 8.83178 9.56243 8.99683C9.39896 9.16188 9.23548 9.32689 9.23548 9.57446H8.74512C8.90858 9.07931 9.07203 8.83178 9.39895 8.58421Z" fill="#2E3192"/>
<path d="M16.7549 5.36555H0.408757C0.245295 5.36555 0.163574 5.28308 0.163574 5.11804C0.163574 4.95299 0.245295 4.87042 0.408757 4.87042H16.7549C16.9184 4.87042 17.0001 4.95299 17.0001 5.11804C16.9184 5.20056 16.8367 5.36555 16.7549 5.36555Z" fill="#2E3192"/>
</svg>
