<svg width="21" height="19" viewBox="0 0 21 19" fill="none" xmlns="http://www.w3.org/2000/svg">
<path d="M20.4 18.8414H0.300049C0.100049 18.8414 0 18.7414 0 18.5414C0 18.3414 0.100049 18.2415 0.300049 18.2415H20.4C20.6 18.2415 20.7 18.3414 20.7 18.5414C20.7 18.6414 20.6 18.8414 20.4 18.8414Z" fill="#FBFDFF"/>
<path d="M5.59998 16.6414C5.49998 16.6414 5.50002 16.6414 5.40002 16.6414C5.30002 16.6414 5.30005 16.5415 5.30005 16.4415L5.09998 13.1414C5.09998 13.0414 5.09998 13.0415 5.09998 12.9415L13.1 0.641402C13.2 0.541402 13.4 0.441426 13.5 0.541426L16.8 2.6414C16.9 2.6414 16.9 2.74148 16.9 2.84148C16.9 2.94148 16.9 3.04143 16.9 3.04143L8.90002 15.3415C8.90002 15.4415 8.80005 15.4415 8.80005 15.4415L5.59998 16.6414C5.69998 16.6414 5.59998 16.6414 5.59998 16.6414ZM5.69995 13.1414L5.90002 15.9415L8.5 14.9415L16.3 2.94145L13.5 1.1414L5.69995 13.1414Z" fill="#FBFDFF"/>
</svg>
