<svg width="24" height="37" viewBox="0 0 24 37" fill="none" xmlns="http://www.w3.org/2000/svg">
<path fill-rule="evenodd" clip-rule="evenodd" d="M5.31348 10.7243C5.31348 14.1202 8.19406 16.801 11.8427 16.801C15.4914 16.801 18.3719 14.1202 18.3719 10.7243C18.3719 7.32846 15.4914 4.64746 11.8427 4.64746C8.19406 4.64746 5.31348 7.32846 5.31348 10.7243ZM6.46576 10.7243C6.46576 8.04338 8.77016 5.7198 11.8427 5.7198C14.9153 5.7198 17.4117 8.04338 17.2197 10.7243C17.2197 13.4053 14.9153 15.7286 11.8427 15.7286C8.9622 15.7286 6.46576 13.584 6.46576 10.7243Z" fill="#FBFDFF"/>
<path fill-rule="evenodd" clip-rule="evenodd" d="M11.2664 36.1036C11.4584 36.2824 11.6504 36.461 11.8425 36.461C12.2264 36.461 12.4186 36.461 12.6106 36.1036L22.7885 15.7283C24.3248 12.3325 24.1327 8.40036 22.0203 5.18322C19.908 2.14481 16.4513 0.17873 12.6106 0H11.2664C7.42569 0.17873 3.969 1.96608 1.85661 5.18322C-0.255779 8.40036 -0.639897 12.3325 1.08842 15.7283L11.2664 36.1036ZM11.2664 0.893651H12.8027C16.2593 1.07238 19.3318 2.85981 21.2522 5.7195C23.1725 8.57918 23.3646 12.3326 21.8284 15.371L12.0345 34.8524L2.24071 15.371C0.704422 12.3326 0.896434 8.57918 2.81679 5.7195C4.54511 2.85981 7.80976 1.07238 11.2664 0.893651Z" fill="#FBFDFF"/>
</svg>
